<svg width="68" height="51" viewBox="0 0 68 51" fill="none" xmlns="http://www.w3.org/2000/svg">
<path d="M9.39755 47.1925C9.47159 47.5047 9.60802 47.7987 9.79864 48.0568C9.98925 48.3149 10.2301 48.5317 10.5067 48.6943C10.7833 48.8569 11.09 48.9618 11.4082 49.0028C11.7264 49.0438 12.0497 49.02 12.3584 48.9328C26.5162 45.0238 41.4683 45.0224 55.6268 48.9287C55.9355 49.0158 56.2586 49.0396 56.5767 48.9986C56.8948 48.9576 57.2013 48.8527 57.4778 48.6902C57.7544 48.5277 57.9952 48.311 58.1858 48.0531C58.3764 47.7951 58.5129 47.5013 58.587 47.1892L66.154 15.0326C66.2553 14.6022 66.2344 14.1519 66.0936 13.7327C65.9529 13.3135 65.6978 12.9418 65.3573 12.6597C65.0167 12.3776 64.6042 12.1961 64.166 12.1358C63.7279 12.0755 63.2817 12.1387 62.8775 12.3183L47.8605 18.9926C47.3182 19.2336 46.7054 19.2629 46.1426 19.0746C45.5799 18.8864 45.108 18.4944 44.8198 17.9757L36.0761 2.23704C35.8704 1.8668 35.5695 1.55829 35.2044 1.3435C34.8394 1.12871 34.4235 1.01544 34 1.01544C33.5764 1.01544 33.1606 1.12871 32.7956 1.3435C32.4305 1.55829 32.1296 1.8668 31.9239 2.23704L23.1802 17.9757C22.892 18.4944 22.4201 18.8864 21.8573 19.0746C21.2946 19.2628 20.6817 19.2336 20.1395 18.9926L5.12016 12.3173C4.71611 12.1377 4.26995 12.0745 3.83192 12.1348C3.39388 12.195 2.98137 12.3764 2.64081 12.6584C2.30026 12.9404 2.04519 13.3119 1.90433 13.731C1.76346 14.1501 1.7424 14.6002 1.8435 15.0307L9.39755 47.1925Z" stroke="black" stroke-width="2" stroke-linecap="round" stroke-linejoin="round"/>
</svg>
