<svg width="64" height="62" viewBox="0 0 64 62" fill="none" xmlns="http://www.w3.org/2000/svg">
<path d="M33.3095 50.6237L48.2826 60.11C50.1965 61.3226 52.5728 59.5192 52.0048 57.285L47.6788 40.2674C47.557 39.7935 47.5714 39.2947 47.7204 38.8286C47.8694 38.3624 48.147 37.9478 48.5212 37.6324L61.9481 26.457C63.7123 24.9886 62.8017 22.0607 60.535 21.9136L43.0004 20.7756C42.5281 20.7418 42.0752 20.5746 41.6942 20.2934C41.3133 20.0122 41.0201 19.6285 40.8487 19.1871L34.3091 2.71856C34.1313 2.25004 33.8152 1.84669 33.4028 1.56206C32.9904 1.27744 32.5011 1.125 32 1.125C31.4989 1.125 31.0097 1.27744 30.5972 1.56206C30.1848 1.84669 29.8687 2.25004 29.691 2.71856L23.1513 19.1871C22.98 19.6285 22.6867 20.0122 22.3058 20.2934C21.9249 20.5746 21.4719 20.7418 20.9996 20.7756L3.46498 21.9136C1.19832 22.0607 0.287724 24.9886 2.05196 26.457L15.4788 37.6324C15.853 37.9478 16.1306 38.3624 16.2796 38.8286C16.4286 39.2947 16.443 39.7935 16.3212 40.2674L12.3093 56.0494C11.6278 58.7303 14.4793 60.8945 16.776 59.4394L30.6905 50.6237C31.0818 50.3746 31.5361 50.2423 32 50.2423C32.4639 50.2423 32.9182 50.3746 33.3095 50.6237V50.6237Z" stroke="black" stroke-width="2" stroke-linecap="round" stroke-linejoin="round"/>
</svg>
