<svg width="123" height="37" viewBox="0 0 123 37" fill="none" xmlns="http://www.w3.org/2000/svg">
<path fill-rule="evenodd" clip-rule="evenodd" d="M77.2 11.3099L75.2 7.92989L71.65 9.61989L69.65 6.22989L66.1 7.92989L64.11 4.52989L60.56 6.22989L58.56 2.83989L55.01 4.53989L53.02 1.13989L49.46 2.83989L41.93 27.3599L51.08 30.1599C51.4247 29.0547 52.1533 28.1093 53.1342 27.4944C54.1151 26.8796 55.2836 26.6359 56.4285 26.8074C57.5734 26.9789 58.6192 27.5542 59.3769 28.4295C60.1346 29.3048 60.5543 30.4222 60.56 31.5799V31.6799C60.58 32.1199 60.53 32.5599 60.4 32.9999L69.7 35.8499L77.2 11.3099Z" fill="#D61920"/>
<path fill-rule="evenodd" clip-rule="evenodd" d="M49.78 25.34C49.5487 25.3017 49.3388 25.1818 49.1883 25.002C49.0379 24.8222 48.9568 24.5944 48.96 24.36V12.36C48.9587 12.2283 48.9836 12.0976 49.0334 11.9757C49.0832 11.8538 49.1568 11.743 49.2499 11.6499C49.343 11.5568 49.4538 11.4832 49.5757 11.4334C49.6977 11.3836 49.8283 11.3586 49.96 11.36H58.63C59.1408 11.3587 59.6469 11.458 60.1194 11.6523C60.5918 11.8465 61.0214 12.132 61.3836 12.4923C61.7457 12.8525 62.0334 13.2806 62.2301 13.7521C62.4268 14.2236 62.5287 14.7291 62.53 15.24V24.36C62.5297 24.5073 62.4969 24.6527 62.434 24.7858C62.371 24.9189 62.2794 25.0365 62.1657 25.1301C62.052 25.2237 61.919 25.2911 61.7763 25.3274C61.6336 25.3637 61.4846 25.368 61.34 25.34C61.1105 25.2996 60.9029 25.1788 60.7545 24.9992C60.6061 24.8196 60.5265 24.593 60.53 24.36V15.25C60.53 14.7461 60.3298 14.2628 59.9735 13.9065C59.6172 13.5502 59.1339 13.35 58.63 13.35H56.74V24.35C56.7408 24.484 56.7146 24.6167 56.6631 24.7404C56.6115 24.8641 56.5357 24.9762 56.44 25.07C56.3261 25.1829 56.1866 25.2664 56.0333 25.3135C55.88 25.3605 55.7176 25.3696 55.56 25.34C55.3287 25.3017 55.1188 25.1818 54.9683 25.002C54.8179 24.8222 54.7368 24.5944 54.74 24.36V13.35H50.96V24.35C50.9609 24.4971 50.9294 24.6426 50.8676 24.7761C50.8059 24.9096 50.7154 25.0279 50.6027 25.1224C50.4901 25.217 50.3579 25.2855 50.2157 25.3231C50.0735 25.3607 49.9247 25.3665 49.78 25.34ZM64.2 30.57C63.967 30.5315 63.7557 30.4101 63.605 30.2282C63.4543 30.0463 63.3744 29.8161 63.38 29.58C63.3811 29.3176 63.4852 29.0662 63.67 28.88C63.8546 28.6916 64.1062 28.5837 64.37 28.58C65.22 28.58 65.95 28.04 66.19 27.23L67.22 23.8L63.85 12.53C63.8098 12.4039 63.795 12.2712 63.8065 12.1394C63.818 12.0076 63.8555 11.8794 63.9169 11.7622C63.9783 11.645 64.0623 11.5411 64.1641 11.4566C64.2659 11.3722 64.3835 11.3087 64.51 11.27C64.7619 11.2002 65.031 11.2297 65.2617 11.3525C65.4924 11.4753 65.6672 11.682 65.75 11.93L68.25 20.33L70.79 11.93C70.91 11.47 71.42 11.16 71.94 11.26L72.01 11.27C72.55 11.44 72.85 12.01 72.69 12.54L69.22 24.1L68.12 27.8C67.8731 28.5962 67.3837 29.2955 66.72 29.8C66.0449 30.3063 65.2238 30.58 64.38 30.58C64.3198 30.5823 64.2595 30.5789 64.2 30.57Z" fill="#FEFEFE"/>
<path fill-rule="evenodd" clip-rule="evenodd" d="M3.07999 23.1499H5.03999C5.56247 23.1499 6.06355 22.9423 6.43299 22.5729C6.80244 22.2034 7.00999 21.7023 7.00999 21.1799V15.4099C7.01131 15.1512 6.96166 14.8947 6.86387 14.6552C6.76608 14.4157 6.62208 14.1978 6.44007 14.0139C6.25807 13.8301 6.04163 13.6839 5.80312 13.5836C5.56461 13.4834 5.3087 13.4312 5.04999 13.4299H3.07999V23.1299V23.1499ZM1.84999 25.2099C1.60988 25.1693 1.3922 25.0442 1.23631 24.8571C1.08041 24.67 0.996591 24.4334 0.999993 24.1899V6.26987C0.998225 6.13277 1.02385 5.99669 1.07537 5.86962C1.12688 5.74255 1.20325 5.62704 1.29999 5.52987C1.41704 5.40833 1.56215 5.31741 1.72257 5.2651C1.88299 5.21279 2.0538 5.20069 2.21999 5.22987C2.71999 5.32987 3.07999 5.74987 3.07999 6.25987V11.3599H5.03999C5.57137 11.3586 6.0978 11.4621 6.58911 11.6645C7.08042 11.867 7.52696 12.1643 7.90317 12.5396C8.27938 12.9149 8.57786 13.3607 8.78151 13.8515C8.98517 14.3423 9.08999 14.8685 9.08999 15.3999V21.1699C9.08735 22.2405 8.66086 23.2666 7.90379 24.0237C7.14671 24.7807 6.12066 25.2072 5.04999 25.2099H2.03999C1.97316 25.2138 1.9061 25.2105 1.83999 25.1999L1.84999 25.2099Z" fill="#333545"/>
<path fill-rule="evenodd" clip-rule="evenodd" d="M16.14 13.3499C16.0277 13.3303 15.914 13.3203 15.8 13.3199C15.5405 13.3172 15.2832 13.3664 15.043 13.4644C14.8027 13.5625 14.5845 13.7075 14.401 13.891C14.2176 14.0744 14.0726 14.2927 13.9745 14.5329C13.8764 14.7731 13.8273 15.0305 13.83 15.2899V21.2999C13.8287 21.559 13.8787 21.8158 13.9772 22.0554C14.0758 22.295 14.2208 22.5127 14.404 22.6959C14.5872 22.8791 14.8049 23.0241 15.0445 23.1227C15.2842 23.2212 15.5409 23.2712 15.8 23.2699C16.3225 23.2699 16.8235 23.0624 17.193 22.6929C17.5624 22.3235 17.77 21.8224 17.77 21.2999V15.2999C17.77 14.3299 17.08 13.5199 16.14 13.3499ZM15.09 25.2999C14.1524 25.135 13.3032 24.6442 12.6921 23.9142C12.081 23.1842 11.7474 22.2619 11.75 21.3099V15.2999C11.7482 14.768 11.8526 14.2411 12.0569 13.75C12.2612 13.259 12.5614 12.8136 12.94 12.4399C13.3155 12.0645 13.7614 11.767 14.2522 11.5645C14.7431 11.362 15.269 11.2585 15.8 11.2599C16.8715 11.2599 17.8991 11.6856 18.6567 12.4432C19.4144 13.2009 19.84 14.2284 19.84 15.2999V21.3099C19.84 22.3899 19.42 23.4099 18.65 24.1799C18.276 24.5546 17.8318 24.8517 17.3427 25.0541C16.8536 25.2566 16.3293 25.3606 15.8 25.3599C15.562 25.3609 15.3244 25.3408 15.09 25.2999ZM26.89 13.3599C26.7777 13.3402 26.664 13.3302 26.55 13.3299C26.2905 13.3272 26.0332 13.3764 25.793 13.4744C25.5527 13.5725 25.3345 13.7175 25.151 13.901C24.9676 14.0844 24.8226 14.3027 24.7245 14.5429C24.6264 14.7831 24.5773 15.0405 24.58 15.2999V21.3099C24.5787 21.569 24.6287 21.8258 24.7273 22.0654C24.8258 22.305 24.9708 22.5227 25.154 22.7059C25.3372 22.8891 25.5549 23.0341 25.7945 23.1327C26.0341 23.2312 26.2909 23.2812 26.55 23.2799C26.8091 23.2812 27.0658 23.2312 27.3054 23.1327C27.5451 23.0341 27.7628 22.8891 27.9459 22.7059C28.1291 22.5227 28.2742 22.305 28.3727 22.0654C28.4713 21.8258 28.5213 21.569 28.52 21.3099V15.2999C28.52 14.3399 27.83 13.5299 26.89 13.3599ZM25.84 25.2999C24.9042 25.1329 24.0573 24.6412 23.4483 23.9114C22.8392 23.1816 22.507 22.2605 22.51 21.3099V15.2999C22.5116 14.7106 22.6417 14.1287 22.8914 13.5948C23.1411 13.061 23.5043 12.5881 23.9557 12.2091C24.407 11.8301 24.9356 11.5542 25.5046 11.4006C26.0736 11.247 26.6693 11.2195 27.25 11.3199C28.1877 11.4825 29.038 11.9708 29.6508 12.699C30.2637 13.4271 30.5998 14.3482 30.6 15.2999V21.3099C30.6012 21.8441 30.4957 22.3732 30.2896 22.866C30.0836 23.3589 29.7811 23.8056 29.4 24.1799C29.026 24.5546 28.5818 24.8517 28.0927 25.0541C27.6036 25.2566 27.0793 25.3606 26.55 25.3599C26.31 25.3599 26.07 25.3399 25.84 25.2999ZM34.11 25.3399C33.8699 25.2994 33.6522 25.1742 33.4963 24.9872C33.3404 24.8001 33.2566 24.5634 33.26 24.3199V6.26991C33.26 5.98991 33.36 5.71991 33.56 5.52991C33.678 5.41347 33.8223 5.3272 33.9807 5.27846C34.1391 5.22971 34.307 5.21992 34.47 5.24991C34.97 5.32991 35.34 5.75991 35.34 6.26991V16.9499L40.12 11.5899C40.36 11.3299 40.72 11.2099 41.08 11.2699C41.2615 11.3003 41.4316 11.3787 41.5725 11.4971C41.7134 11.6155 41.82 11.7694 41.8813 11.943C41.9425 12.1165 41.9562 12.3033 41.9208 12.4839C41.8854 12.6645 41.8022 12.8323 41.68 12.9699L38.07 16.9999L41.8 23.8299C41.8672 23.9451 41.9106 24.0726 41.9278 24.2048C41.9449 24.337 41.9355 24.4714 41.9 24.5999C41.8613 24.7324 41.7962 24.8556 41.7086 24.9622C41.6209 25.0688 41.5125 25.1564 41.39 25.2199C41.1783 25.3416 40.9302 25.3842 40.69 25.3399C40.5406 25.3147 40.3986 25.2568 40.2741 25.1703C40.1497 25.0839 40.0458 24.9711 39.97 24.8399L36.61 18.6599L35.33 20.0699V24.3199C35.33 24.5957 35.2204 24.8603 35.0254 25.0553C34.8303 25.2503 34.5658 25.3599 34.29 25.3599C34.22 25.3599 34.16 25.3599 34.09 25.3399H34.11ZM79.92 25.3299C79.3576 25.2357 78.8234 25.0172 78.3563 24.6902C77.8892 24.3632 77.501 23.9361 77.22 23.4399C77.0826 23.1968 77.0467 22.9093 77.12 22.6399C77.2 22.3799 77.37 22.1599 77.6 22.0199C77.8135 21.9032 78.061 21.8644 78.3 21.9099C78.6 21.9599 78.87 22.1399 79.02 22.4099C79.29 22.8699 79.72 23.1699 80.25 23.2599C80.5232 23.3074 80.8037 23.2925 81.0704 23.2163C81.3371 23.1401 81.5831 23.0046 81.79 22.8199C82.19 22.4499 82.39 21.9199 82.34 21.3999C82.3289 21.1334 82.2552 20.8732 82.1249 20.6404C81.9946 20.4076 81.8114 20.2088 81.59 20.0599L78.79 18.0699C78.3338 17.7496 77.9539 17.3326 77.6773 16.8486C77.4008 16.3646 77.2344 15.8256 77.19 15.2699C77.1538 14.7093 77.2458 14.1478 77.4589 13.628C77.672 13.1082 78.0007 12.6438 78.42 12.2699C78.8291 11.8896 79.3178 11.6052 79.8506 11.4374C80.3833 11.2697 80.9468 11.2227 81.5 11.2999C82.68 11.4999 83.64 12.1799 84.19 13.1399C84.3225 13.3798 84.357 13.6617 84.2861 13.9265C84.2153 14.1912 84.0446 14.4183 83.81 14.5599C83.5983 14.6816 83.3502 14.7242 83.11 14.6799C82.9606 14.6547 82.8186 14.5968 82.6941 14.5103C82.5697 14.4239 82.4658 14.3111 82.39 14.1799C82.2645 13.9678 82.0937 13.786 81.8896 13.6477C81.6856 13.5094 81.4535 13.4179 81.21 13.3799C80.9608 13.3348 80.7046 13.3484 80.4616 13.4196C80.2186 13.4907 79.9955 13.6175 79.81 13.7899C79.6289 13.9608 79.4876 14.1694 79.396 14.401C79.3044 14.6325 79.2648 14.8814 79.28 15.1299C79.3 15.6199 79.58 16.0999 80 16.3799L82.8 18.3299C83.2753 18.6627 83.6683 19.0997 83.9491 19.6074C84.2298 20.1152 84.3909 20.6804 84.42 21.2599C84.4663 21.8367 84.3774 22.4163 84.1605 22.9528C83.9435 23.4892 83.6043 23.9676 83.17 24.3499C82.7476 24.7424 82.2429 25.0358 81.6929 25.2088C81.1428 25.3818 80.561 25.43 79.99 25.3499L79.91 25.3299H79.92ZM87.95 25.3599C87.7098 25.3177 87.4921 25.1924 87.3349 25.006C87.1777 24.8195 87.091 24.5838 87.09 24.3399V6.28991C87.0887 6.15297 87.1146 6.01713 87.1664 5.89035C87.2182 5.76357 87.2948 5.64839 87.3916 5.55155C87.4885 5.45471 87.6036 5.37815 87.7304 5.32636C87.8572 5.27457 87.993 5.24858 88.13 5.24991L88.33 5.25991C88.83 5.35991 89.17 5.76991 89.17 6.28991V11.3899H91.14C91.6709 11.3886 92.1968 11.4922 92.6876 11.6948C93.1783 11.8973 93.6242 12.1948 93.9996 12.5703C94.3751 12.9457 94.6726 13.3916 94.8752 13.8823C95.0777 14.3731 95.1813 14.899 95.18 15.4299V24.3299C95.1808 24.4809 95.1485 24.6302 95.0852 24.7673C95.022 24.9045 94.9293 25.026 94.8139 25.1233C94.6984 25.2206 94.563 25.2914 94.4172 25.3305C94.2713 25.3697 94.1187 25.3763 93.97 25.3499C93.47 25.2599 93.11 24.8299 93.11 24.3199V15.4199C93.11 15.1617 93.059 14.906 92.9598 14.6675C92.8607 14.4291 92.7155 14.2126 92.5324 14.0304C92.3493 13.8483 92.1321 13.7041 91.8931 13.6062C91.6542 13.5083 91.3982 13.4586 91.14 13.4599H89.17V24.3299C89.1711 24.4819 89.1386 24.6323 89.0748 24.7702C89.0109 24.9082 88.9173 25.0303 88.8007 25.1278C88.6841 25.2253 88.5473 25.2958 88.4002 25.3342C88.2532 25.3726 88.0994 25.378 87.95 25.3499V25.3599ZM102.23 13.3699C101.947 13.3185 101.655 13.3301 101.377 13.404C101.099 13.4779 100.84 13.6123 100.619 13.7975C100.399 13.9827 100.222 14.2143 100.101 14.4757C99.9801 14.7371 99.9183 15.0219 99.92 15.3099V21.3199C99.9187 21.5781 99.9684 21.8341 100.066 22.073C100.164 22.312 100.308 22.5292 100.491 22.7123C100.673 22.8954 100.889 23.0406 101.128 23.1398C101.366 23.2389 101.622 23.2899 101.88 23.2899C102.4 23.2899 102.9 23.0899 103.27 22.7199C103.455 22.5371 103.602 22.319 103.702 22.0786C103.801 21.8381 103.852 21.5802 103.85 21.3199V15.2999C103.85 14.3399 103.17 13.5199 102.22 13.3599L102.23 13.3699ZM101.17 25.2899C100.235 25.125 99.3884 24.6353 98.7791 23.9072C98.1699 23.1791 97.8373 22.2593 97.84 21.3099V15.2999C97.8401 14.7097 97.9692 14.1267 98.2183 13.5916C98.4673 13.0565 98.8303 12.5824 99.2818 12.2023C99.7334 11.8222 100.262 11.5454 100.832 11.3913C101.402 11.2371 101.998 11.2094 102.58 11.3099C103.519 11.4728 104.371 11.9626 104.984 12.6928C105.597 13.423 105.932 14.3465 105.93 15.2999V21.3099C105.93 21.8425 105.825 22.3698 105.618 22.861C105.412 23.3521 105.11 23.7971 104.73 24.1699C104.271 24.6305 103.708 24.973 103.088 25.1681C102.468 25.3631 101.81 25.4049 101.17 25.2899Z" fill="#333545"/>
<path fill-rule="evenodd" clip-rule="evenodd" d="M121.9 12.5398C121.934 12.4128 121.943 12.2802 121.926 12.1498C121.909 12.0194 121.866 11.8937 121.8 11.7798C121.724 11.6584 121.625 11.5534 121.509 11.471C121.392 11.3885 121.26 11.3303 121.12 11.2998C120.862 11.251 120.595 11.3026 120.374 11.4438C120.153 11.585 119.994 11.8054 119.93 12.0598C119.93 12.1098 118.81 16.6198 117.93 20.0498L117.91 20.1198L117.89 20.0498L115.89 12.0698C115.851 11.875 115.754 11.6967 115.611 11.559C115.468 11.4213 115.286 11.3308 115.09 11.2998C115.031 11.2881 114.97 11.2814 114.91 11.2798C114.45 11.2798 114.05 11.5998 113.92 12.0598C113.91 12.1098 112.79 16.6198 111.92 20.0498L111.9 20.1198L111.88 20.0498C111.03 16.6198 109.88 12.1098 109.88 12.0598C109.833 11.8684 109.731 11.6947 109.588 11.5599C109.444 11.425 109.264 11.3346 109.07 11.2998C108.904 11.2704 108.732 11.2828 108.572 11.3359C108.411 11.389 108.267 11.4812 108.151 11.6042C108.034 11.7272 107.951 11.8771 107.907 12.0404C107.863 12.2037 107.861 12.3753 107.9 12.5398L110.91 24.5698C110.967 24.7902 111.095 24.9859 111.273 25.1268C111.452 25.2677 111.672 25.3461 111.9 25.3498C112.39 25.3498 112.78 25.0298 112.88 24.5698L114.88 16.5798L114.91 16.5098L114.93 16.5798C115.81 20.0498 116.93 24.5798 116.93 24.5798C116.99 24.796 117.117 24.9874 117.293 25.1259C117.47 25.2645 117.686 25.3429 117.91 25.3498C118.14 25.357 118.366 25.2827 118.547 25.14C118.728 24.9974 118.853 24.7955 118.9 24.5698L121.9 12.5398Z" fill="#333545"/>
</svg>
